<?xml version="1.0" standalone="no"?>
<!DOCTYPE svg PUBLIC "-//W3C//DTD SVG 20010904//EN"
 "http://www.w3.org/TR/2001/REC-SVG-20010904/DTD/svg10.dtd">
<svg version="1.0" xmlns="http://www.w3.org/2000/svg"
 width="2304.000000pt" height="1792.000000pt" viewBox="0 0 2304.000000 1792.000000"
 preserveAspectRatio="xMidYMid meet">

<g transform="translate(0.000000,1792.000000) scale(0.100000,-0.100000)"
fill="#000000" stroke="none">
<path d="M6230 15940 c-6 -11 -8 -20 -6 -20 3 0 10 9 16 20 6 11 8 20 6 20 -3
0 -10 -9 -16 -20z"/>
<path d="M5955 15640 c-10 -11 -16 -22 -14 -24 2 -2 12 7 22 20 22 29 17 32
-8 4z"/>
<path d="M5797 15462 c-10 -10 -17 -24 -17 -30 0 -7 -7 -12 -15 -12 -8 0 -15
-3 -15 -8 0 -4 -10 -19 -22 -32 -13 -14 -32 -36 -43 -49 l-20 -24 23 12 c12 6
22 15 22 20 0 4 20 27 44 52 25 24 43 45 40 48 -2 2 3 13 13 23 9 10 14 18 11
18 -3 0 -12 -8 -21 -18z"/>
<path d="M5633 15270 c-13 -15 -23 -32 -23 -36 0 -10 40 27 51 48 15 28 -3 20
-28 -12z"/>
<path d="M5573 15197 c-11 -13 -43 -53 -71 -89 l-51 -66 34 1 c32 1 34 3 31
31 -3 21 4 40 22 62 28 35 57 35 48 1 -3 -15 -2 -17 6 -9 9 9 8 18 0 37 -14
31 -15 38 -4 31 5 -3 9 1 9 9 0 19 0 19 -24 -8z m-77 -135 c-18 -16 -18 -16
-6 6 6 13 14 21 18 18 3 -4 -2 -14 -12 -24z"/>
<path d="M5556 15133 c-6 -14 -5 -15 5 -6 7 7 10 15 7 18 -3 3 -9 -2 -12 -12z"/>
<path d="M5410 14987 l-23 -32 29 27 c15 15 26 30 23 33 -3 2 -16 -10 -29 -28z"/>
<path d="M5415 14961 c-4 -7 -3 -16 2 -20 6 -3 13 -13 16 -21 5 -13 5 -13 6 0
0 8 -4 24 -8 34 -6 15 -10 16 -16 7z"/>
<path d="M5372 14937 c-6 -7 -9 -23 -5 -35 3 -13 1 -22 -6 -22 -6 0 -8 8 -4
18 5 14 3 14 -13 -3 -25 -26 -74 -92 -74 -99 0 -3 -7 -14 -15 -23 -22 -27
-188 -267 -238 -343 -240 -371 -460 -770 -617 -1120 -28 -63 -57 -128 -65
-145 -7 -16 -23 -55 -35 -85 -12 -30 -28 -71 -37 -90 -8 -19 -19 -45 -24 -57
-5 -13 -13 -33 -18 -45 -28 -66 -106 -298 -170 -503 -114 -365 -207 -794 -261
-1205 -39 -291 -52 -399 -61 -500 -5 -63 -14 -160 -19 -215 -6 -55 -16 -251
-24 -435 -26 -634 15 -1287 125 -1989 45 -291 54 -276 55 93 0 330 7 425 55
756 21 146 75 424 107 555 25 101 63 242 71 265 5 14 14 45 21 70 19 66 152
461 189 560 18 47 39 105 47 130 8 25 19 54 23 65 5 11 39 96 76 188 92 231
184 428 321 683 24 45 50 92 56 105 50 95 310 508 402 639 139 198 472 628
600 774 27 31 176 211 211 255 36 45 291 342 340 395 6 6 41 47 79 91 39 44
75 85 80 90 6 6 28 30 50 55 21 25 99 107 174 183 74 76 133 140 130 142 -5 5
-54 -39 -62 -57 -5 -11 -7 -11 -12 0 -5 10 -10 8 -21 -7 -8 -12 -11 -26 -8
-31 3 -6 0 -10 -8 -10 -8 0 -22 -11 -31 -25 -9 -14 -22 -23 -28 -19 -6 4 -8 3
-5 -2 3 -6 -14 -29 -38 -53 -36 -36 -46 -41 -51 -27 -4 10 -17 16 -38 15 -29
-1 -29 -1 -6 -8 17 -5 21 -9 12 -15 -6 -4 -12 -12 -12 -18 0 -6 8 -4 18 5 23
21 38 10 17 -12 -8 -9 -24 -27 -35 -41 -11 -14 -19 -19 -20 -12 0 6 5 12 10
12 6 0 10 7 10 15 0 8 -6 15 -14 15 -17 0 -28 24 -20 45 5 13 -7 15 -75 15
l-81 0 0 40 0 40 -80 0 -80 0 0 40 0 40 -40 0 -40 0 0 40 0 40 -40 0 -40 0 0
40 0 40 -40 0 -40 0 0 80 0 80 -40 0 -40 0 0 40 0 40 -40 0 -40 0 0 40 0 40
-40 0 -40 0 0 40 0 40 -40 0 -40 0 0 40 0 40 -40 0 -40 0 0 40 0 40 -40 0 -40
0 0 40 0 40 -42 1 c-24 1 -46 1 -50 0 -5 0 -8 8 -8 19 0 11 -5 20 -11 20 -6 0
-9 -9 -6 -20 3 -11 1 -20 -4 -20 -16 0 -21 27 -9 49 12 23 -1 29 -18 8z m-12
-92 c0 -5 -4 -4 -9 4 -6 9 -11 10 -15 2 -4 -6 0 -18 8 -27 20 -19 20 -20 -3
-20 -12 0 -17 5 -13 15 3 9 1 12 -6 7 -17 -10 -15 0 5 30 12 19 18 22 24 12 5
-7 9 -17 9 -23z m-96 -111 c3 -8 2 -12 -4 -9 -6 3 -10 10 -10 16 0 14 7 11 14
-7z m-61 -77 c3 -8 -1 -14 -8 -14 -7 0 -11 6 -8 14 3 7 6 13 8 13 2 0 5 -6 8
-13z m1364 -836 c0 -17 -3 -30 -6 -29 -21 2 -30 -5 -33 -24 -2 -15 -9 -22 -21
-22 -13 2 -16 -3 -12 -20 5 -18 4 -18 -5 -4 -8 13 -5 26 12 55 12 21 27 41 33
45 6 5 6 8 0 9 -5 0 -1 4 10 9 11 5 20 9 21 9 0 1 1 -12 1 -28z m-62 9 c-3 -5
-10 -10 -16 -10 -5 0 -9 5 -9 10 0 6 7 10 16 10 8 0 12 -4 9 -10z m-76 -177
c-13 -16 -25 -30 -26 -32 -2 -2 -3 1 -3 7 0 11 39 52 49 52 2 0 -6 -12 -20
-27z m-84 -91 c-17 -15 -18 -15 -6 0 7 9 9 23 5 30 -6 10 -4 11 7 0 11 -10 10
-15 -6 -30z"/>
<path d="M7199 14453 c-13 -16 -12 -17 4 -4 9 7 17 15 17 17 0 8 -8 3 -21 -13z"/>
<path d="M7129 14383 l-24 -28 28 24 c15 14 27 26 27 28 0 8 -8 1 -31 -24z"/>
<path d="M7000 14250 c-6 -11 -8 -20 -6 -20 3 0 10 9 16 20 6 11 8 20 6 20 -3
0 -10 -9 -16 -20z"/>
<path d="M6953 14203 c0 -9 4 -10 14 -2 7 6 13 12 13 14 0 1 -6 2 -13 2 -8 0
-14 -6 -14 -14z"/>
<path d="M6921 14167 c-13 -21 -12 -21 5 -5 10 10 16 20 13 22 -3 3 -11 -5
-18 -17z"/>
<path d="M6650 13969 c0 -14 26 -17 43 -5 14 11 12 13 -13 13 -17 0 -30 -4
-30 -8z"/>
<path d="M6643 13931 c1 -11 6 -17 14 -14 10 4 11 9 2 19 -15 19 -18 18 -16
-5z"/>
<path d="M6560 13889 c0 -5 5 -7 10 -4 6 3 10 8 10 11 0 2 -4 4 -10 4 -5 0
-10 -5 -10 -11z"/>
<path d="M8219 13843 c-13 -16 -12 -17 4 -4 9 7 17 15 17 17 0 8 -8 3 -21 -13z"/>
<path d="M8190 13813 c0 -5 -27 -37 -60 -73 -33 -36 -60 -68 -60 -72 0 -10 20
11 88 90 29 34 49 62 43 62 -6 0 -11 -3 -11 -7z"/>
<path d="M8035 13640 c-15 -16 -16 -23 -6 -33 10 -9 11 -8 6 5 -5 13 -1 20 16
26 12 5 18 12 12 15 -6 4 -18 -2 -28 -13z"/>
<path d="M7985 13580 c-3 -5 -1 -10 4 -10 6 0 11 5 11 10 0 6 -2 10 -4 10 -3
0 -8 -4 -11 -10z"/>
<path d="M7915 13506 c-27 -29 -79 -84 -114 -122 -34 -38 -91 -98 -125 -135
-33 -36 -119 -128 -191 -205 -172 -184 -245 -262 -341 -362 -43 -46 -82 -91
-86 -100 -4 -9 -7 -14 -7 -10 -1 4 -20 -14 -43 -40 -24 -26 -77 -83 -119 -127
-41 -44 -100 -107 -130 -140 -30 -33 -90 -98 -135 -145 -44 -47 -109 -116
-144 -155 -35 -38 -84 -93 -109 -120 -506 -552 -890 -1070 -1207 -1627 -73
-129 -280 -536 -318 -628 -11 -25 -30 -69 -43 -97 -55 -125 -70 -160 -82 -193
-7 -19 -17 -44 -21 -55 -90 -224 -194 -535 -262 -780 -6 -22 -14 -53 -19 -70
-5 -16 -15 -60 -24 -98 -8 -37 -22 -95 -30 -130 -8 -34 -21 -101 -30 -149 -8
-48 -17 -97 -20 -110 -5 -24 -31 -212 -46 -338 -21 -177 -40 -611 -34 -760 22
-560 70 -896 196 -1374 37 -141 110 -377 129 -421 5 -11 16 -40 24 -65 8 -25
31 -88 51 -140 38 -98 48 -121 85 -205 12 -27 29 -66 38 -85 29 -67 182 -375
215 -435 19 -33 47 -82 62 -110 75 -135 237 -395 278 -447 36 -45 22 -7 -42
115 -63 120 -132 279 -166 382 -127 389 -183 691 -206 1128 -18 341 18 865 80
1177 5 25 15 74 22 110 31 167 117 489 170 638 58 162 61 169 124 322 94 226
208 460 326 665 90 157 105 182 208 347 100 160 444 656 471 678 4 3 26 32 51
65 56 76 265 338 342 430 33 39 79 93 102 120 201 238 659 765 895 1029 107
121 217 245 243 275 203 234 293 337 368 415 48 50 106 114 129 141 24 28 75
83 114 124 39 40 76 79 81 85 6 7 25 29 44 49 33 35 34 38 18 55 -9 10 -17 23
-17 28 1 5 9 -1 20 -14 l19 -23 63 67 c35 37 81 86 103 110 220 234 237 254
217 254 -6 0 -12 -6 -15 -12 -3 -9 -10 -7 -21 7 -8 11 -16 15 -16 10 0 -6 5
-16 11 -22 15 -15 -8 -56 -27 -49 -16 6 -54 -13 -54 -28 0 -5 9 -1 20 9 29 26
32 15 5 -17 -16 -18 -25 -23 -29 -15 -3 7 -4 3 -3 -8 1 -15 -3 -19 -18 -17
-14 2 -16 0 -7 -6 10 -7 7 -13 -13 -28 -14 -10 -25 -24 -25 -31 0 -7 -6 -12
-12 -11 -7 2 -13 -1 -13 -7 1 -5 -19 -30 -43 -55 l-44 -45 32 49 c32 47 32 48
9 42 -20 -6 -21 -5 -6 4 9 6 17 19 17 29 0 18 25 35 38 27 4 -2 13 2 20 10 11
12 10 15 -2 20 -11 4 -16 19 -16 45 l0 39 -80 0 -80 0 0 40 0 40 -40 0 -40 0
0 40 0 40 -40 0 -40 0 0 40 0 40 -40 0 -40 0 0 40 0 40 40 0 c29 0 40 4 40 15
0 11 -11 15 -40 15 -29 0 -40 -4 -40 -15 0 -11 -11 -15 -40 -15 l-40 0 0 40 0
40 -40 0 -40 0 0 40 0 40 -40 0 -40 0 0 40 0 40 -55 0 -55 0 0 40 c0 36 -2 40
-25 40 -22 0 -25 4 -25 40 l0 40 -40 0 -40 0 0 40 0 40 -40 0 -40 0 0 40 0 40
-40 0 -40 0 0 75 c0 65 -2 75 -17 75 -17 1 -17 1 0 11 9 5 17 14 17 20 0 5
-11 2 -25 -7 -30 -19 -33 -5 -5 21 20 19 27 45 11 45 -5 0 -11 -9 -14 -21 -3
-11 -15 -23 -26 -26 -23 -6 -29 -23 -8 -23 8 0 8 -3 -2 -9 -8 -5 -21 -7 -29
-3 -11 4 -14 1 -9 -10 3 -10 0 -19 -9 -22 -21 -8 -17 -28 5 -21 16 5 40 -11
30 -19 -7 -6 -69 15 -69 23 0 4 27 36 60 71 33 35 60 67 60 73 0 5 7 6 16 3
12 -5 14 -1 9 15 -5 15 -4 19 4 15 6 -4 14 0 17 8 3 9 12 16 20 16 8 0 14 5
14 11 0 5 -6 7 -12 3 -9 -5 -9 -2 1 9 14 18 26 23 16 8 -6 -11 33 -26 42 -17
4 3 -1 6 -10 6 -24 0 -17 31 16 65 23 25 34 46 25 45 -2 -1 -25 -25 -53 -54z
m-251 -297 c-16 -18 -17 -22 -4 -32 8 -7 15 -21 16 -32 0 -17 -5 -20 -28 -17
-16 2 -31 8 -34 13 -5 9 52 89 63 89 4 0 -2 -9 -13 -21z m-74 -89 c0 -5 -5
-10 -11 -10 -5 0 -7 5 -4 10 3 6 8 10 11 10 2 0 4 -4 4 -10z m-136 -148 c3 -5
-1 -9 -9 -9 -8 0 -12 4 -9 9 3 4 7 8 9 8 2 0 6 -4 9 -8z m1322 -1009 c-7 -7
-26 7 -26 19 0 6 6 6 15 -2 9 -7 13 -15 11 -17z m-46 -54 c-7 -11 -15 -17 -18
-12 -4 4 -11 12 -17 16 -6 5 -3 7 7 3 10 -3 20 -1 23 4 12 19 15 10 5 -11z
m-79 -82 c-10 -9 -11 -8 -5 6 3 10 9 15 12 12 3 -3 0 -11 -7 -18z"/>
<path d="M7630 13155 c0 -9 5 -15 11 -13 6 2 11 8 11 13 0 5 -5 11 -11 13 -6
2 -11 -4 -11 -13z"/>
<path d="M9709 12943 c-13 -16 -12 -17 4 -4 9 7 17 15 17 17 0 8 -8 3 -21 -13z"/>
<path d="M9545 12780 c-10 -11 -14 -20 -9 -20 5 0 17 9 27 20 9 11 13 20 8 20
-4 0 -16 -9 -26 -20z"/>
<path d="M9395 12620 c-10 -11 -22 -17 -26 -14 -5 3 -6 -2 -3 -11 5 -12 9 -13
21 -4 14 12 37 49 30 49 -2 0 -12 -9 -22 -20z"/>
<path d="M9277 12498 c-37 -40 -65 -74 -62 -76 2 -2 25 20 52 48 26 29 58 63
71 76 13 13 19 24 14 24 -6 0 -39 -32 -75 -72z"/>
<path d="M9129 12398 c-1 -2 -2 -18 -4 -37 -2 -18 -8 -37 -15 -41 -7 -4 -8
-10 -3 -13 4 -3 24 13 43 36 19 23 25 34 13 24 -19 -16 -21 -16 -27 -2 -3 9
-4 21 0 26 3 5 3 9 0 9 -3 0 -6 -1 -7 -2z"/>
<path d="M9155 12390 c-3 -6 1 -7 9 -4 18 7 21 14 7 14 -6 0 -13 -4 -16 -10z"/>
<path d="M10351 12017 c-13 -21 -12 -21 5 -5 10 10 16 20 13 22 -3 3 -11 -5
-18 -17z"/>
<path d="M10283 11946 c-15 -19 -61 -72 -102 -118 -307 -346 -329 -372 -285
-338 18 14 39 37 48 53 10 15 21 27 27 27 5 0 9 7 9 15 0 8 3 14 8 13 4 -2 9
2 12 7 8 16 42 56 88 99 23 22 42 45 42 51 0 6 14 21 30 35 17 14 30 28 30 32
0 4 23 31 50 59 28 28 50 56 50 61 0 6 6 8 13 5 8 -3 13 3 13 14 0 11 -1 19
-2 19 -1 0 -15 -15 -31 -34z"/>
<path d="M10468 11703 c6 -2 18 -2 25 0 6 3 1 5 -13 5 -14 0 -19 -2 -12 -5z"/>
<path d="M10385 11670 c-16 -7 -17 -9 -3 -9 9 -1 20 4 23 9 7 11 7 11 -20 0z"/>
<path d="M10239 11613 c-12 -16 -12 -17 1 -7 8 7 24 14 35 17 19 4 19 5 -1 6
-12 0 -28 -7 -35 -16z"/>
<path d="M10170 11586 c6 -6 18 -5 32 1 21 10 21 10 -9 9 -19 -1 -28 -5 -23
-10z"/>
<path d="M10105 11559 c-22 -10 -32 -19 -22 -19 18 0 77 27 77 35 0 8 -13 4
-55 -16z"/>
<path d="M9960 11540 c0 -6 7 -13 15 -16 24 -9 18 -20 -20 -38 -19 -9 -35 -21
-35 -26 0 -6 22 2 49 17 l49 28 -25 22 c-27 26 -33 28 -33 13z"/>
<path d="M9990 11539 c0 -5 5 -7 10 -4 6 3 10 8 10 11 0 2 -4 4 -10 4 -5 0
-10 -5 -10 -11z"/>
<path d="M9944 11511 c0 -15 3 -17 13 -9 7 6 10 14 7 19 -9 15 -20 10 -20 -10z"/>
<path d="M10030 11520 c0 -5 5 -10 10 -10 6 0 10 5 10 10 0 6 -4 10 -10 10 -5
0 -10 -4 -10 -10z"/>
<path d="M9897 11472 c-10 -10 -14 -22 -10 -26 4 -4 0 -4 -8 -1 -10 4 -29 -5
-48 -20 -48 -41 -37 -47 23 -12 29 18 52 36 49 40 -3 4 1 14 7 22 18 22 6 18
-13 -3z"/>
<path d="M8518 9998 c-121 -129 -250 -271 -333 -368 -57 -66 -240 -271 -544
-610 -146 -162 -295 -329 -331 -370 -98 -110 -301 -365 -424 -529 -104 -140
-396 -572 -396 -586 0 -4 -9 -19 -19 -34 -50 -69 -152 -253 -265 -476 -134
-264 -233 -494 -302 -705 -8 -25 -19 -54 -24 -65 -4 -11 -11 -29 -13 -40 -3
-11 -15 -51 -27 -90 -51 -165 -111 -424 -140 -600 -6 -38 -15 -92 -20 -120
-39 -221 -53 -498 -47 -905 5 -367 13 -514 62 -1075 8 -98 15 -205 15 -237 0
-32 4 -58 8 -58 5 0 15 -12 22 -27 37 -73 437 -616 600 -813 366 -443 650
-716 1006 -972 204 -147 604 -385 604 -361 0 5 -34 33 -76 63 -172 123 -371
309 -518 480 -197 230 -411 575 -508 820 -223 560 -279 1133 -178 1810 19 130
79 393 109 480 5 14 14 45 22 70 7 25 16 49 21 55 4 5 8 17 8 27 0 10 4 26 9
36 5 9 19 44 31 77 32 87 40 108 73 185 99 231 252 526 380 734 27 44 63 102
78 128 80 135 333 492 508 718 102 132 295 374 316 396 5 6 35 42 65 79 30 37
128 154 218 258 89 105 162 198 162 207 0 9 -4 20 -9 26 -5 5 -16 36 -25 69
-8 33 -29 112 -46 175 -86 321 -104 476 -104 895 0 346 14 537 54 775 29 169
53 303 66 360 37 160 43 187 48 218 3 17 2 32 -3 32 -5 0 -65 -60 -133 -132z"/>
<path d="M9360 9956 c-64 -18 -106 -42 -158 -89 -109 -100 -140 -321 -67 -467
13 -25 46 -67 74 -93 69 -65 113 -84 344 -148 26 -8 60 -26 75 -42 23 -25 27
-36 27 -90 0 -46 -6 -69 -20 -89 -43 -60 -154 -86 -228 -54 -18 7 -52 34 -76
60 -24 27 -49 45 -57 42 -7 -3 -47 -8 -88 -12 -74 -7 -74 -7 -79 -38 -4 -25 3
-41 36 -84 50 -65 98 -104 174 -139 51 -24 70 -27 163 -28 127 0 206 26 280
92 77 69 95 116 95 253 0 107 -2 118 -27 160 -33 57 -60 81 -123 113 -75 37
-93 44 -180 66 -44 11 -96 27 -116 35 -127 53 -152 269 -40 343 28 19 48 23
108 23 72 0 75 -1 114 -37 24 -23 47 -58 57 -88 10 -27 22 -50 27 -49 6 0 43
4 83 8 65 8 75 12 83 33 31 81 -80 242 -206 298 -86 38 -186 45 -275 21z"/>
<path d="M10338 9960 c-282 -4 -374 -12 -333 -26 7 -3 9 -204 7 -584 -2 -390
1 -594 8 -620 10 -37 14 -40 45 -40 18 0 35 -5 37 -12 3 -9 19 -9 64 0 32 6
163 14 291 18 l232 7 6 63 c4 35 4 75 1 89 l-6 25 -193 2 c-105 1 -210 3 -232
4 -22 2 -48 3 -57 3 -16 1 -18 15 -18 141 l0 140 199 0 199 0 4 33 c2 18 2 53
0 78 l-4 45 -91 12 c-51 7 -138 12 -194 12 l-103 0 -1 28 c0 15 -3 108 -5 208
l-4 181 217 6 c120 3 228 9 240 13 30 8 48 67 39 128 -4 25 -10 47 -14 48 -4
2 -154 1 -334 -2z"/>
<path d="M13510 9923 c-1 -27 -1 -302 0 -613 l1 -565 32 -33 c30 -31 34 -32
87 -27 30 3 165 7 299 10 134 2 246 7 249 9 2 3 1 43 -3 89 l-7 84 -229 5
c-126 3 -231 7 -233 9 -2 2 -6 66 -8 142 l-3 137 208 0 208 0 -3 88 -3 87
-200 5 -200 5 -3 301 -2 301 -53 7 c-28 3 -71 6 -94 6 l-43 0 0 -47z"/>
<path d="M14286 9899 c-8 -77 -6 -904 2 -1081 4 -93 7 -108 23 -113 11 -4 26
-13 35 -22 13 -14 19 -14 41 -2 19 10 78 14 237 14 129 0 214 4 218 10 13 17
9 114 -6 150 l-15 35 -170 0 -171 0 -1 358 c-2 325 -3 485 -8 660 l-1 62 -89
0 -88 0 -7 -71z"/>
<path d="M11532 9560 c1 -220 0 -400 -3 -400 -3 0 -30 33 -60 73 -30 39 -145
187 -255 327 -110 140 -222 285 -249 323 l-49 67 -61 0 -62 0 4 -242 c1 -134
6 -413 9 -620 l6 -378 98 0 c53 0 99 2 101 4 3 3 1 53 -2 113 -10 150 -17 683
-10 682 3 0 41 -46 83 -102 108 -142 434 -554 486 -613 23 -27 42 -55 42 -62
0 -10 7 -12 23 -8 12 3 40 6 62 6 l40 0 -2 492 c-1 271 -5 548 -9 616 l-6 122
-95 0 -95 0 4 -400z"/>
<path d="M11937 9953 c-9 -8 -9 -1135 -1 -1197 l7 -46 96 0 96 0 -3 612 c-1
337 -4 619 -7 626 -5 13 -176 18 -188 5z"/>
<path d="M12328 9345 c2 -335 5 -616 8 -624 4 -13 49 -12 149 4 11 2 23 4 28
4 4 1 6 179 5 396 -2 217 0 395 4 395 3 0 24 -24 45 -54 75 -106 303 -404 471
-614 50 -64 92 -120 92 -124 0 -4 21 -6 48 -4 26 2 56 4 67 5 20 1 20 7 17
603 -1 332 -4 609 -7 616 -3 8 -31 12 -94 12 l-90 0 -6 -42 c-4 -24 -5 -206
-3 -406 2 -199 0 -362 -4 -362 -4 0 -20 17 -35 39 -15 21 -113 150 -218 287
-104 137 -229 302 -278 367 l-89 118 -57 -3 -57 -3 4 -610z"/>
<path d="M10615 9320 c-18 -8 -17 -9 8 -9 15 -1 27 4 27 9 0 12 -8 12 -35 0z"/>
<path d="M13284 8577 c-10 -6 -14 -28 -14 -82 0 -114 -16 -106 199 -105 l186
2 3 -568 c2 -491 5 -571 18 -600 19 -40 41 -48 100 -39 77 11 74 -15 74 637
l0 573 170 -3 170 -4 1 23 c1 13 3 55 5 92 3 48 0 69 -9 72 -23 8 -889 10
-903 2z"/>
<path d="M10445 8573 l-60 -4 3 -312 c1 -172 1 -391 0 -487 l-3 -175 -41 60
c-22 33 -89 132 -149 220 -171 253 -446 648 -468 673 -21 23 -56 28 -116 16
l-31 -7 0 -680 c0 -478 4 -685 11 -694 14 -16 96 -17 130 -1 53 25 54 38 54
500 0 236 3 428 7 428 8 0 17 -12 89 -120 28 -41 97 -142 154 -225 58 -82 141
-204 186 -270 172 -253 230 -325 260 -325 10 0 41 5 69 11 l50 11 0 641 c0
353 -3 666 -6 695 l-7 52 -36 -2 c-20 -1 -63 -3 -96 -5z"/>
<path d="M10771 8569 c-30 -5 -56 -10 -57 -12 -1 -1 1 -299 5 -662 l6 -660 25
-27 25 -26 348 5 347 6 0 91 0 91 -277 0 -278 0 0 202 c0 174 2 203 15 203 8
1 111 0 228 0 l212 -1 0 29 c0 63 -13 122 -26 122 -8 0 -14 4 -14 9 0 14 -55
21 -232 29 -92 4 -170 11 -175 15 -4 5 -8 98 -8 207 l0 200 260 2 260 3 -1 55
c-1 30 -2 72 -2 93 l-2 37 -302 -1 c-167 -1 -327 -5 -357 -10z"/>
<path d="M11494 8566 c-3 -7 -4 -48 -2 -92 l3 -79 185 -3 185 -2 -3 -563 c-2
-309 -1 -571 2 -582 15 -60 82 -82 152 -49 l34 16 2 337 c1 185 1 347 0 361 0
14 1 129 5 255 l5 231 135 -4 c83 -3 150 0 173 7 35 10 38 14 44 57 3 26 6 64
6 85 l0 38 -460 1 c-373 0 -462 -3 -466 -14z"/>
<path d="M12567 8570 c-27 -5 -51 -10 -53 -12 -2 -2 -4 -301 -4 -665 l-2 -662
22 -23 21 -23 362 4 c199 1 363 4 365 6 1 1 -1 41 -4 89 l-7 86 -284 0 -283 0
2 208 3 207 145 0 c80 0 182 1 226 3 l81 2 6 48 c3 26 1 51 -4 57 -15 16 -10
35 10 35 11 0 23 5 27 11 5 9 -1 10 -19 5 -15 -3 -48 -1 -74 6 -26 6 -127 14
-223 17 l-175 6 -3 206 -3 206 256 6 c141 3 258 7 259 9 2 1 1 42 -2 91 l-5
87 -296 -1 c-163 -1 -318 -5 -344 -9z"/>
<path d="M19342 8500 c0 -14 2 -19 5 -12 2 6 2 18 0 25 -3 6 -5 1 -5 -13z"/>
<path d="M19342 8370 c0 -19 2 -27 5 -17 2 9 2 25 0 35 -3 9 -5 1 -5 -18z"/>
<path d="M19302 7755 c0 -16 2 -22 5 -12 2 9 2 23 0 30 -3 6 -5 -1 -5 -18z"/>
<path d="M19292 7670 c0 -19 2 -27 5 -17 2 9 2 25 0 35 -3 9 -5 1 -5 -18z"/>
<path d="M15732 7600 c0 -14 2 -19 5 -12 2 6 2 18 0 25 -3 6 -5 1 -5 -13z"/>
<path d="M15711 7484 c0 -11 3 -14 6 -6 3 7 2 16 -1 19 -3 4 -6 -2 -5 -13z"/>
<path d="M18025 7488 c-43 -23 -117 -84 -132 -108 -9 -14 3 -6 28 19 24 24 66
56 94 72 27 16 46 29 40 29 -5 -1 -19 -6 -30 -12z"/>
<path d="M15180 7475 c0 -8 4 -15 10 -15 5 0 7 7 4 15 -4 8 -8 15 -10 15 -2 0
-4 -7 -4 -15z"/>
<path d="M15696 7445 c-3 -9 -6 -29 -5 -43 1 -22 3 -19 10 12 10 40 6 60 -5
31z"/>
<path d="M19261 7424 c0 -11 3 -14 6 -6 3 7 2 16 -1 19 -3 4 -6 -2 -5 -13z"/>
<path d="M15378 7383 c7 -3 16 -2 19 1 4 3 -2 6 -13 5 -11 0 -14 -3 -6 -6z"/>
<path d="M17631 7374 c0 -11 3 -14 6 -6 3 7 2 16 -1 19 -3 4 -6 -2 -5 -13z"/>
<path d="M15430 7360 c8 -5 20 -10 25 -10 6 0 3 5 -5 10 -8 5 -19 10 -25 10
-5 0 -3 -5 5 -10z"/>
<path d="M19252 7330 c0 -14 2 -19 5 -12 2 6 2 18 0 25 -3 6 -5 1 -5 -13z"/>
<path d="M15500 7337 c0 -3 15 -10 32 -16 18 -6 28 -7 23 -2 -12 10 -55 25
-55 18z"/>
<path d="M17612 7320 c0 -14 2 -19 5 -12 2 6 2 18 0 25 -3 6 -5 1 -5 -13z"/>
<path d="M15671 7314 c0 -11 3 -14 6 -6 3 7 2 16 -1 19 -3 4 -6 -2 -5 -13z"/>
<path d="M19230 7296 c0 -8 4 -17 9 -20 5 -4 7 3 4 14 -6 23 -13 26 -13 6z"/>
<path d="M15105 7240 c3 -5 8 -10 11 -10 2 0 4 5 4 10 0 6 -5 10 -11 10 -5 0
-7 -4 -4 -10z"/>
<path d="M17826 7214 c-4 -14 -5 -28 -3 -31 3 -2 8 8 11 23 4 14 5 28 3 31 -3
2 -8 -8 -11 -23z"/>
<path d="M19216 7208 c-12 -64 -16 -142 -7 -133 9 10 31 115 31 147 0 30 -17
20 -24 -14z"/>
<path d="M17571 7214 c0 -11 3 -14 6 -6 3 7 2 16 -1 19 -3 4 -6 -2 -5 -13z"/>
<path d="M15045 7210 c3 -5 8 -10 11 -10 2 0 4 5 4 10 0 6 -5 10 -11 10 -5 0
-7 -4 -4 -10z"/>
<path d="M15180 7207 c14 -8 34 -18 45 -25 11 -6 33 -13 48 -17 25 -5 26 -7
12 -21 -8 -8 -15 -18 -15 -22 0 -3 5 -1 12 6 13 13 51 16 62 5 3 -4 17 -8 29
-10 12 -1 -3 9 -33 23 -30 14 -78 37 -106 50 -53 25 -98 34 -54 11z"/>
<path d="M15910 7181 c0 -6 4 -13 10 -16 6 -3 7 1 4 9 -7 18 -14 21 -14 7z"/>
<path d="M15011 7144 c0 -11 3 -14 6 -6 3 7 2 16 -1 19 -3 4 -6 -2 -5 -13z"/>
<path d="M17801 7147 c0 -10 -10 -37 -21 -59 -23 -47 -23 -48 -12 -48 13 0 43
81 39 104 -3 16 -5 17 -6 3z"/>
<path d="M17532 7120 c0 -14 2 -19 5 -12 2 6 2 18 0 25 -3 6 -5 1 -5 -13z"/>
<path d="M14991 7123 c2 -14 -13 -53 -21 -53 -4 0 -10 -6 -13 -13 -3 -8 0 -14
7 -14 16 0 47 75 35 83 -5 3 -9 2 -8 -3z"/>
<path d="M15396 7111 c-8 -12 36 -26 56 -18 7 3 4 6 -7 6 -12 1 -26 6 -32 12
-7 7 -13 8 -17 0z"/>
<path d="M16575 7094 c-4 -16 -9 -36 -12 -44 -3 -8 -8 -24 -9 -35 -3 -17 -2
-17 6 -4 11 19 31 102 25 107 -2 3 -7 -9 -10 -24z"/>
<path d="M15022 7076 c7 -8 15 -12 17 -11 5 6 -10 25 -20 25 -5 0 -4 -6 3 -14z"/>
<path d="M15498 7073 c12 -2 22 -9 22 -14 0 -5 8 -9 17 -9 15 0 14 2 -3 15
-10 8 -28 14 -39 13 -17 -1 -17 -1 3 -5z"/>
<path d="M15000 7055 c0 -8 4 -15 10 -15 5 0 7 7 4 15 -4 8 -8 15 -10 15 -2 0
-4 -7 -4 -15z"/>
<path d="M16198 7063 c7 -3 16 -2 19 1 4 3 -2 6 -13 5 -11 0 -14 -3 -6 -6z"/>
<path d="M15435 7050 c-3 -5 -1 -10 4 -10 6 0 11 5 11 10 0 6 -2 10 -4 10 -3
0 -8 -4 -11 -10z"/>
<path d="M15478 7053 c7 -3 16 -2 19 1 4 3 -2 6 -13 5 -11 0 -14 -3 -6 -6z"/>
<path d="M16822 7040 c0 -14 2 -19 5 -12 2 6 2 18 0 25 -3 6 -5 1 -5 -13z"/>
<path d="M15378 7043 c7 -3 16 -2 19 1 4 3 -2 6 -13 5 -11 0 -14 -3 -6 -6z"/>
<path d="M16255 7040 c11 -5 27 -9 35 -9 9 0 8 4 -5 9 -11 5 -27 9 -35 9 -9 0
-8 -4 5 -9z"/>
<path d="M15526 7004 c-4 -20 -5 -39 -2 -42 3 -3 6 5 6 17 0 12 4 20 8 17 4
-2 6 -24 3 -48 -4 -37 -5 -40 -12 -18 -4 15 -5 1 -3 -34 4 -54 2 -58 -16 -53
-10 3 -21 0 -23 -6 -2 -6 -6 -3 -10 7 -4 10 -3 15 3 11 6 -3 10 1 10 9 0 22
-37 20 -43 -1 -4 -17 -5 -17 -6 0 -1 11 -9 17 -24 17 -21 0 -22 -4 -20 -47 2
-26 9 -51 15 -55 8 -5 0 -6 -17 -2 -16 4 -31 11 -33 16 -2 4 -93 8 -203 8
l-199 0 -1 43 c-1 23 -2 60 -3 81 0 23 -6 40 -14 42 -7 1 -8 0 -2 -3 15 -7 12
-59 -5 -73 -12 -10 -15 -10 -15 3 0 9 5 19 10 22 12 7 13 25 2 25 -4 0 -13
-14 -20 -30 -8 -17 -18 -27 -24 -24 -5 4 -3 13 6 23 9 10 16 25 16 34 0 8 6
22 13 29 19 19 39 58 30 58 -16 0 -123 -198 -117 -217 4 -13 3 -14 -3 -5 -12
16 -24 3 -51 -54 -27 -58 -56 -104 -65 -104 -5 0 -5 -4 -2 -10 3 -5 2 -10 -3
-10 -11 0 -38 -60 -34 -73 1 -5 -2 -6 -7 -3 -11 7 -21 -17 -21 -50 0 -41 26
-78 87 -125 32 -24 60 -47 63 -50 3 -3 34 -26 68 -50 35 -24 76 -53 92 -64
158 -113 205 -145 217 -145 7 0 13 -4 13 -10 0 -18 25 -10 41 13 15 22 119
261 171 395 15 41 25 78 22 84 -4 6 -2 8 3 5 6 -4 13 1 16 11 3 9 21 62 41
117 21 55 38 105 40 110 2 6 8 23 14 38 7 16 15 46 18 68 4 21 10 39 15 39 5
0 9 13 9 29 0 17 5 33 10 36 6 3 10 11 10 17 0 24 -30 -16 -31 -41 0 -23 -2
-21 -15 13 -19 52 -20 53 -28 10z m-649 -146 c-3 -8 -6 -5 -6 6 -1 11 2 17 5
13 3 -3 4 -12 1 -19z m0 -40 c-2 -7 0 -26 4 -43 l9 -29 -21 21 c-17 17 -19 24
-10 42 13 23 25 29 18 9z m600 -30 c-3 -7 -5 -2 -5 12 0 14 2 19 5 13 2 -7 2
-19 0 -25z m-4 -66 c7 -9 6 -11 -7 -6 -9 3 -16 16 -15 28 0 14 2 16 6 6 3 -8
10 -21 16 -28z m-645 10 c2 -7 -3 -12 -11 -12 -9 0 -17 -6 -20 -12 -2 -7 -4
-1 -3 13 1 27 26 34 34 11z m372 -27 c0 -11 -11 -15 -40 -15 -29 0 -40 4 -40
15 0 11 11 15 40 15 29 0 40 -4 40 -15z m-413 -37 c-3 -8 -6 -5 -6 6 -1 11 2
17 5 13 3 -3 4 -12 1 -19z m-22 3 c3 -5 1 -12 -5 -16 -5 -3 -10 1 -10 9 0 18
6 21 15 7z m695 -1 c0 -5 -5 -10 -11 -10 -5 0 -7 5 -4 10 3 6 8 10 11 10 2 0
4 -4 4 -10z m-776 -196 c3 -8 2 -12 -4 -9 -6 3 -10 10 -10 16 0 14 7 11 14 -7z
m649 -119 c-3 -9 -8 -14 -10 -11 -3 3 -2 9 2 15 9 16 15 13 8 -4z"/>
<path d="M19180 6994 c0 -27 -4 -43 -10 -39 -5 3 -10 15 -10 26 0 10 -4 19 -8
19 -10 0 -36 -109 -29 -117 3 -2 10 15 15 39 9 39 10 40 11 11 2 -54 -5 -60
-59 -55 l-50 5 0 -42 0 -41 -240 0 -240 0 0 -40 0 -40 -80 0 c-64 0 -80 3 -80
15 0 11 -11 15 -40 15 -29 0 -40 -4 -40 -15 0 -13 -39 -15 -295 -15 -262 0
-295 2 -295 16 0 18 -17 37 -42 47 -10 3 -18 11 -18 17 0 6 4 8 10 5 6 -3 7 1
4 9 -3 9 -1 16 5 16 7 0 14 -7 17 -15 4 -8 13 -15 22 -15 12 0 10 6 -8 25 -22
23 -22 26 -6 44 15 16 15 19 1 24 -10 5 -15 0 -15 -13 0 -11 -4 -20 -9 -20 -5
0 -17 -21 -27 -47 -23 -65 -82 -211 -99 -249 -8 -16 -23 -38 -34 -48 -11 -10
-18 -23 -15 -28 3 -4 2 -8 -3 -6 -12 3 -97 -25 -103 -33 -15 -21 -434 78 -555
131 -73 32 -132 47 -148 39 -14 -8 -48 -95 -53 -134 0 -5 -6 -23 -13 -40 -7
-16 -22 -55 -33 -85 -46 -124 -111 -288 -134 -338 -13 -29 -24 -55 -24 -57 0
-2 -13 -34 -30 -70 -16 -36 -30 -67 -30 -69 0 -4 -87 -186 -174 -365 -26 -55
-34 -101 -17 -101 5 0 16 -6 23 -12 30 -29 243 -170 453 -302 77 -49 163 -103
190 -121 32 -20 66 -55 94 -96 41 -61 43 -67 39 -125 -4 -65 -7 -71 -154 -369
-75 -152 -125 -247 -221 -425 -40 -74 -54 -101 -65 -124 -7 -14 -5 -24 10 -40
11 -11 53 -57 93 -101 133 -144 524 -535 536 -535 11 0 242 249 338 365 28 33
52 62 55 65 56 55 363 470 496 670 198 298 303 481 479 835 116 234 158 330
257 580 89 225 204 584 249 780 12 50 26 108 31 130 5 22 13 58 18 80 5 22 13
58 19 80 57 232 74 345 51 345 -5 0 -10 -21 -10 -46z m-13 -111 c-3 -10 -5 -2
-5 17 0 19 2 27 5 18 2 -10 2 -26 0 -35z m-80 -35 c-3 -8 -6 -5 -6 6 -1 11 2
17 5 13 3 -3 4 -12 1 -19z m52 -68 c0 -9 -4 -8 -9 5 -5 11 -9 27 -9 35 0 9 4
8 9 -5 5 -11 9 -27 9 -35z m-1456 -60 c-2 -2 -8 2 -13 10 -7 11 -10 -2 -11
-40 -1 -30 -3 -47 -6 -37 -2 9 -9 15 -14 11 -5 -3 -7 -10 -4 -15 4 -5 1 -9 -4
-9 -15 0 -14 13 4 36 8 10 15 29 15 41 0 12 3 29 6 38 6 14 8 13 19 -7 6 -13
10 -25 8 -28z m-6 -47 c-3 -10 -5 -4 -5 12 0 17 2 24 5 18 2 -7 2 -21 0 -30z
m20 15 c-3 -8 -6 -5 -6 6 -1 11 2 17 5 13 3 -3 4 -12 1 -19z m-954 -85 c-7 -2
-19 -2 -25 0 -7 3 -2 5 12 5 14 0 19 -2 13 -5z m-8 -25 c3 -3 -3 -8 -15 -11
-13 -3 -20 0 -20 8 0 13 23 15 35 3z m48 5 c-7 -2 -19 -2 -25 0 -7 3 -2 5 12
5 14 0 19 -2 13 -5z m799 -35 c-7 -7 -12 -8 -12 -2 0 14 12 26 19 19 2 -3 -1
-11 -7 -17z m1495 -30 c-3 -7 -5 -2 -5 12 0 14 2 19 5 13 2 -7 2 -19 0 -25z
m-2140 6 c-3 -3 -12 -4 -19 -1 -8 3 -5 6 6 6 11 1 17 -2 13 -5z m650 -16 c-3
-8 -6 -5 -6 6 -1 11 2 17 5 13 3 -3 4 -12 1 -19z m-900 -20 c-3 -7 -5 -2 -5
12 0 14 2 19 5 13 2 -7 2 -19 0 -25z m867 7 c-7 -16 -24 -21 -24 -6 0 8 7 13
27 20 1 1 0 -6 -3 -14z m-584 -5 c8 -5 11 -10 5 -10 -5 0 -17 5 -25 10 -8 5
-10 10 -5 10 6 0 17 -5 25 -10z m100 0 c8 -5 11 -10 5 -10 -5 0 -17 5 -25 10
-8 5 -10 10 -5 10 6 0 17 -5 25 -10z m203 -47 c-7 -2 -21 -2 -30 0 -10 3 -4 5
12 5 17 0 24 -2 18 -5z m-30 -20 c-7 -2 -21 -2 -30 0 -10 3 -4 5 12 5 17 0 24
-2 18 -5z m70 0 c-7 -2 -19 -2 -25 0 -7 3 -2 5 12 5 14 0 19 -2 13 -5z m160 0
c-7 -2 -19 -2 -25 0 -7 3 -2 5 12 5 14 0 19 -2 13 -5z m-53 -7 c0 -2 -15 -6
-34 -8 -19 -2 -32 0 -30 4 5 8 64 12 64 4z"/>
<path d="M16325 7023 c11 -3 24 -9 30 -14 5 -5 20 -9 35 -8 23 0 22 2 -10 14
-19 7 -44 13 -55 13 l-20 0 20 -5z"/>
<path d="M17740 6994 c-7 -17 -7 -31 0 -42 10 -18 12 -14 14 38 1 37 -2 38
-14 4z"/>
<path d="M17467 6963 c-4 -3 -7 -11 -7 -17 0 -6 5 -5 12 2 6 6 9 14 7 17 -3 3
-9 2 -12 -2z"/>
<path d="M17717 6930 c-3 -11 -1 -20 4 -20 5 0 9 9 9 20 0 11 -2 20 -4 20 -2
0 -6 -9 -9 -20z"/>
<path d="M15800 6883 c-12 -32 -22 -68 -22 -80 0 -13 -4 -23 -8 -23 -5 0 -16
-24 -25 -52 -9 -29 -20 -62 -25 -73 -5 -11 -32 -80 -59 -153 -60 -158 -144
-355 -200 -471 -42 -86 -51 -118 -29 -105 7 5 9 0 6 -14 -7 -25 30 -56 287
-233 229 -158 226 -156 253 -150 30 8 70 84 182 341 18 41 40 93 50 115 10 22
30 69 44 105 30 72 36 88 60 142 9 20 32 83 52 140 19 57 39 112 44 123 10 21
70 203 70 211 0 3 -4 2 -10 -1 -5 -3 -10 -2 -10 3 0 17 -110 53 -128 42 -14
-8 -11 -9 12 -10 16 0 27 -3 24 -6 -3 -3 -33 -2 -66 2 -48 5 -58 9 -49 19 8 9
18 10 30 3 10 -5 26 -7 35 -3 11 5 -26 22 -107 50 -69 24 -128 42 -133 39 -4
-3 -15 2 -24 10 -8 9 -25 16 -37 15 -19 0 -20 -1 -4 -8 10 -4 18 -11 17 -16 0
-6 11 -11 25 -13 14 -2 25 -8 25 -13 0 -5 5 -9 11 -9 5 0 7 5 3 11 -5 9 26 -2
43 -15 1 -1 -16 -2 -37 -3 -22 -1 -42 2 -45 8 -4 5 -18 8 -33 8 l-27 -1 30 -8
30 -8 -27 -1 c-26 -1 -28 -4 -28 -41 l0 -40 -79 0 c-54 0 -81 4 -84 13 -3 6
-4 -13 -1 -43 2 -30 1 -46 -2 -36 -5 14 -8 16 -14 6 -5 -8 -7 12 -5 43 4 58
-9 76 -24 35 -5 -15 -10 -18 -15 -9 -4 6 -3 18 3 25 6 7 13 26 15 42 6 40 27
98 40 106 6 4 26 8 45 8 19 0 31 3 28 7 -4 3 -24 6 -44 5 -28 -1 -34 1 -23 8
13 8 13 10 -2 10 -11 0 -24 -19 -38 -57z m410 -108 l25 -15 -34 3 c-19 2 -37
9 -39 15 -5 16 18 15 48 -3z m-35 -48 c12 -3 4 -5 -17 -6 -30 -1 -36 2 -32 14
4 10 10 12 18 6 6 -5 20 -11 31 -14z m-124 -7 c11 0 18 4 15 8 -3 5 1 9 8 9 8
0 11 -9 8 -24 -4 -19 -10 -23 -43 -23 -22 0 -39 5 -39 10 0 15 24 40 28 29 2
-5 13 -9 23 -9z m249 0 c13 -9 13 -10 0 -9 -8 0 -24 4 -35 9 l-20 9 20 0 c11
0 27 -4 35 -9z m110 -4 c0 -20 -10 -25 -53 -28 -36 -2 -37 -3 -39 -43 -1 -39
-1 -39 -5 -6 -7 54 3 79 35 84 53 8 62 7 62 -7z m39 -56 c-1 -21 -3 -27 -6
-15 -3 11 -10 25 -15 30 -7 7 -9 3 -5 -12 2 -12 0 -24 -7 -26 -6 -3 -11 6 -11
19 0 13 3 24 6 24 4 0 9 10 13 23 5 18 8 20 16 7 5 -8 9 -31 9 -50z m-712 -47
c-3 -10 -5 -4 -5 12 0 17 2 24 5 18 2 -7 2 -21 0 -30z m-20 -35 c-3 -8 -6 -5
-6 6 -1 11 2 17 5 13 3 -3 4 -12 1 -19z m690 0 c-3 -8 -6 -5 -6 6 -1 11 2 17
5 13 3 -3 4 -12 1 -19z m-780 -250 c-3 -8 -6 -5 -6 6 -1 11 2 17 5 13 3 -3 4
-12 1 -19z m-40 -70 c-3 -8 -6 -5 -6 6 -1 11 2 17 5 13 3 -3 4 -12 1 -19z m0
-70 c-3 -8 -6 -5 -6 6 -1 11 2 17 5 13 3 -3 4 -12 1 -19z"/>
<path d="M17446 6915 c-3 -8 -1 -15 4 -15 6 0 10 7 10 15 0 8 -2 15 -4 15 -2
0 -6 -7 -10 -15z"/>
<path d="M17741 6904 c0 -11 3 -14 6 -6 3 7 2 16 -1 19 -3 4 -6 -2 -5 -13z"/>
<path d="M15200 6895 c0 -11 11 -15 40 -15 29 0 40 4 40 15 0 11 -11 15 -40
15 -29 0 -40 -4 -40 -15z"/>
<path d="M15920 6899 c0 -5 6 -9 14 -9 8 0 22 -3 32 -7 11 -4 15 -3 11 4 -8
13 -57 23 -57 12z"/>
<path d="M15848 6893 c-10 -2 -18 -12 -18 -21 0 -13 2 -14 9 -4 5 8 24 18 42
22 26 6 28 8 9 8 -14 0 -33 -2 -42 -5z"/>
<path d="M15361 6868 c0 -7 4 -22 9 -33 7 -17 9 -15 9 13 1 17 -3 32 -9 32 -5
0 -10 -6 -9 -12z"/>
<path d="M17417 6862 c-2 -9 -8 -25 -12 -34 -4 -10 -3 -18 2 -18 12 0 33 59
23 65 -4 3 -10 -3 -13 -13z"/>
<path d="M17734 6865 c-7 -16 3 -35 17 -35 6 0 7 5 4 10 -4 6 -1 17 5 25 10
12 9 15 -4 15 -9 0 -19 -7 -22 -15z"/>
<path d="M16797 6859 c7 -7 15 -10 18 -7 3 3 -2 9 -12 12 -14 6 -15 5 -6 -5z"/>
<path d="M16846 6851 c-3 -5 7 -13 22 -19 58 -22 92 -31 88 -23 -3 5 -27 14
-53 20 -35 9 -43 15 -33 22 13 7 12 9 -2 9 -9 0 -19 -4 -22 -9z"/>
<path d="M15829 6824 c0 -24 -2 -25 -8 -10 -6 15 -10 16 -16 7 -4 -7 -3 -16 2
-20 6 -3 12 -13 15 -21 3 -9 9 1 13 23 4 21 5 41 1 44 -3 4 -6 -7 -7 -23z"/>
<path d="M18080 6815 c0 -11 11 -15 40 -15 29 0 40 4 40 15 0 11 -11 15 -40
15 -29 0 -40 -4 -40 -15z"/>
<path d="M17383 6797 c1 -6 -2 -29 -7 -49 -6 -28 -12 -35 -24 -31 -15 4 -15 3
-2 -6 12 -9 4 -11 -35 -7 -45 5 -46 4 -15 -4 51 -14 80 -5 80 25 0 13 5 27 10
30 12 8 13 42 1 49 -5 3 -8 0 -8 -7z"/>
<path d="M17068 6763 c6 -2 18 -2 25 0 6 3 1 5 -13 5 -14 0 -19 -2 -12 -5z"/>
<path d="M17145 6741 c45 -19 97 -32 103 -27 12 12 -14 24 -68 29 -33 4 -47 3
-35 -2z"/>
<path d="M14364 6206 c-84 -84 -91 -94 -93 -133 l-2 -43 263 -259 c297 -292
309 -304 340 -299 25 4 135 159 199 280 l40 78 -37 32 c-21 18 -51 41 -68 52
-65 39 -290 206 -416 308 -19 16 -40 33 -46 38 -12 9 -85 41 -88 38 0 -1 -42
-43 -92 -92z"/>
<path d="M14015 5884 c-16 -14 -59 -44 -94 -67 l-63 -41 5 -71 c7 -101 -18
-64 350 -514 53 -66 119 -143 145 -172 43 -47 51 -51 78 -45 47 12 274 251
274 289 -1 31 -6 37 -253 287 -122 124 -248 253 -279 288 -48 53 -60 62 -81
57 -14 -4 -28 -2 -31 4 -10 16 -17 13 -51 -15z"/>
<path d="M15278 5668 c-7 -12 -56 -87 -108 -167 -52 -80 -100 -157 -107 -171
-18 -39 -24 -62 -14 -56 5 3 12 -5 15 -19 6 -24 400 -427 449 -460 20 -13 29
-14 44 -5 22 15 129 178 235 361 91 158 91 156 6 210 -29 18 -55 36 -58 39 -3
4 -45 33 -95 66 -49 33 -121 82 -160 109 -188 131 -186 130 -207 93z"/>
<path d="M9970 5639 c-77 -39 -160 -120 -226 -219 -61 -92 -118 -209 -136
-280 -51 -195 -30 -292 85 -396 104 -95 288 -199 540 -308 20 -9 52 -22 70
-30 93 -41 165 -61 204 -57 6 1 24 27 38 59 32 67 64 139 76 167 4 11 26 60
49 108 22 49 40 91 40 93 0 5 59 136 70 156 6 10 10 22 10 28 0 6 9 32 21 58
12 26 26 58 31 72 6 14 15 34 21 45 6 11 12 56 13 100 1 44 5 87 8 95 5 12 -4
19 -31 29 -39 13 -59 20 -103 39 -14 6 -45 19 -69 29 -25 10 -92 42 -150 72
-369 189 -326 171 -416 171 -72 0 -90 -4 -145 -31z"/>
<path d="M13541 5584 c-48 -33 -89 -55 -231 -129 -25 -13 -80 -40 -123 -60
-55 -26 -76 -40 -69 -48 5 -7 9 -36 9 -66 1 -29 5 -63 11 -75 5 -11 22 -47 36
-80 24 -52 376 -648 397 -670 10 -11 55 5 249 90 85 37 262 138 325 185 28 21
58 51 67 66 l17 29 -57 76 c-31 42 -105 137 -163 210 -58 73 -154 201 -213
283 -112 156 -170 225 -189 225 -7 0 -36 -16 -66 -36z"/>
<path d="M12841 5289 c-53 -21 -381 -79 -449 -79 -30 0 -44 -5 -49 -16 -3 -9
-1 -19 4 -23 6 -3 13 -30 17 -59 7 -58 30 -111 101 -242 41 -74 101 -192 264
-520 56 -113 62 -120 96 -120 69 0 374 70 472 109 82 32 81 36 -37 236 -170
288 -252 442 -296 556 -9 24 -21 48 -26 54 -4 5 -8 17 -8 26 0 22 -42 88 -55
88 -5 0 -21 -5 -34 -10z"/>
<path d="M11095 5244 c-7 -49 -37 -158 -57 -204 -12 -28 -16 -38 -49 -125 -12
-33 -32 -82 -45 -110 -22 -50 -45 -101 -85 -192 -12 -27 -30 -68 -41 -93 -38
-86 -70 -155 -85 -183 -24 -45 -4 -60 128 -98 207 -58 371 -87 564 -99 199
-12 189 -20 180 135 -3 61 -10 279 -16 485 -5 206 -12 391 -15 412 -6 39 -2
38 -164 62 -19 3 -78 15 -130 26 -52 12 -114 23 -137 27 l-41 5 -7 -48z"/>
<path d="M11799 5186 c-5 -5 -4 -17 6 -596 4 -239 11 -411 18 -437 l11 -41 90
-1 c86 -1 428 23 471 33 11 3 49 10 85 17 74 15 94 29 85 61 -4 13 -76 164
-161 336 -194 393 -234 480 -234 509 0 8 -9 33 -20 55 -11 23 -20 48 -20 55 0
10 -35 13 -163 13 -90 0 -166 -2 -168 -4z"/>
<path d="M16041 5127 c-18 -23 -61 -90 -96 -149 -35 -59 -100 -162 -144 -229
-45 -66 -81 -127 -81 -133 0 -7 13 -31 29 -52 46 -62 606 -614 624 -614 29 0
53 41 249 427 81 161 148 304 148 317 0 30 -36 58 -180 146 -115 69 -278 173
-409 259 -47 31 -90 59 -97 63 -7 5 -24 -8 -43 -35z"/>
<path d="M14795 5018 c-37 -40 -104 -110 -148 -156 -61 -63 -77 -86 -69 -94 7
-7 12 -18 12 -25 0 -17 43 -83 117 -178 97 -125 265 -357 281 -387 l13 -28
130 0 c71 0 129 -1 129 -3 0 -1 -16 -47 -35 -102 -19 -55 -35 -108 -35 -117 0
-10 -4 -18 -10 -18 -16 0 39 -74 190 -255 19 -23 99 -123 178 -223 l143 -181
37 22 c34 20 151 108 183 139 8 7 30 26 49 41 64 52 252 242 266 270 10 18 12
33 5 45 -12 23 -1273 1277 -1303 1295 -53 34 -61 32 -133 -45z"/>
<path d="M14338 4606 c-25 -24 -279 -176 -353 -210 -132 -61 -280 -138 -286
-148 -8 -12 64 -159 87 -179 23 -19 204 -23 462 -10 341 17 522 40 522 64 0 7
-41 64 -90 127 -70 89 -194 249 -270 350 -12 16 -59 20 -72 6z"/>
<path d="M13400 4153 c-144 -47 -285 -84 -427 -113 -35 -7 -63 -18 -63 -24 0
-6 10 -30 22 -53 l22 -42 51 5 c93 9 196 33 440 104 78 23 89 27 92 36 6 17
-58 104 -75 103 -10 -1 -37 -8 -62 -16z"/>
<path d="M10573 4008 c-22 -40 -51 -98 -65 -128 -14 -30 -65 -136 -113 -235
-48 -99 -98 -203 -111 -232 -13 -28 -29 -55 -34 -58 -31 -19 20 -65 133 -119
286 -138 747 -220 1129 -200 149 7 153 9 143 73 -2 14 -9 130 -15 256 -17 360
-31 529 -43 537 -7 4 -37 8 -67 8 -174 1 -491 56 -755 130 -175 49 -157 52
-202 -32z"/>
<path d="M12599 3966 c-14 -14 -390 -53 -598 -62 l-174 -7 7 -146 c4 -80 11
-211 16 -291 5 -80 12 -199 16 -266 9 -150 7 -148 149 -145 279 6 620 60 855
137 109 36 160 63 160 86 0 11 -28 74 -62 141 -33 67 -97 194 -140 282 -144
290 -130 270 -180 273 -24 2 -46 1 -49 -2z"/>
<path d="M14809 3906 c-4 -4 -176 -22 -354 -37 -55 -4 -252 -13 -438 -18 -383
-12 -520 -23 -627 -50 -41 -11 -119 -31 -174 -45 -54 -14 -114 -26 -132 -26
-22 0 -34 -5 -34 -14 0 -17 175 -365 193 -383 12 -12 29 -11 113 6 209 43 290
51 501 51 362 0 618 27 778 82 68 24 115 53 115 73 0 7 3 15 8 17 4 2 25 37
46 78 22 41 53 102 71 135 58 111 56 135 -14 135 -26 0 -50 -2 -52 -4z"/>
<path d="M15052 3677 c-5 -6 -24 -39 -42 -72 -70 -128 -83 -151 -110 -190 -51
-74 -113 -111 -240 -144 -111 -28 -286 -61 -327 -61 -25 0 -33 -4 -33 -18 0
-18 78 -138 208 -317 121 -167 136 -185 152 -185 17 0 102 33 195 74 28 13 70
31 95 42 56 24 306 150 385 194 63 35 159 103 169 119 8 12 -107 172 -271 379
-133 168 -165 199 -181 179z"/>
<path d="M16300 3484 c-97 -99 -240 -226 -367 -327 -39 -32 -79 -69 -88 -83
-14 -22 -14 -26 0 -40 8 -9 20 -25 26 -36 6 -12 114 -157 239 -323 125 -165
230 -311 234 -323 7 -20 11 -18 84 35 185 135 602 518 602 552 0 7 -6 18 -12
25 -460 478 -597 616 -618 616 -3 0 -48 -43 -100 -96z"/>
<path d="M13615 3175 c-149 -20 -255 -47 -255 -65 0 -15 158 -334 257 -520 27
-52 63 -119 78 -147 24 -46 31 -53 58 -53 17 0 44 4 61 9 17 6 56 17 86 25
347 93 530 161 530 196 0 10 -4 20 -8 22 -9 3 -220 308 -317 456 l-60 92 -170
-1 c-93 -1 -210 -7 -260 -14z"/>
<path d="M10104 3097 c-6 -12 -35 -60 -64 -107 -29 -47 -62 -101 -72 -120 -11
-19 -24 -39 -28 -45 -4 -5 -17 -27 -29 -47 -12 -21 -31 -55 -42 -75 -12 -21
-32 -57 -45 -80 -57 -103 -73 -131 -99 -178 -16 -27 -35 -55 -44 -62 -14 -10
-13 -14 9 -38 84 -90 224 -126 905 -234 230 -37 364 -51 569 -62 186 -10 492
-6 560 8 l29 5 -6 102 c-4 55 -11 144 -17 196 -13 120 -29 284 -37 375 -3 39
-10 76 -15 83 -8 9 -63 12 -212 12 -314 0 -601 35 -828 99 -21 6 -53 15 -70
20 -98 27 -304 104 -393 147 -28 13 -52 24 -55 24 -3 0 -10 -10 -16 -23z"/>
<path d="M13075 3038 c-233 -77 -510 -142 -715 -169 -85 -11 -392 -39 -429
-39 l-24 0 6 -117 c5 -108 38 -452 53 -548 3 -22 12 -55 21 -74 l15 -34 170 7
c401 16 780 75 1137 178 101 29 205 74 199 87 -2 3 -73 148 -159 321 -86 173
-163 331 -172 351 -26 56 -34 59 -102 37z"/>
<path d="M15625 2921 c-22 -21 -593 -304 -780 -386 -29 -13 -56 -28 -59 -33
-5 -9 58 -108 160 -252 34 -47 66 -95 73 -107 11 -22 10 -22 -31 -18 -24 3
-74 8 -113 11 -38 4 -74 12 -78 18 -6 8 -10 7 -14 -1 -2 -7 -8 -13 -13 -13
-10 0 -121 147 -162 216 -39 65 -42 65 -183 14 -49 -18 -103 -36 -120 -40
-268 -70 -455 -139 -455 -167 0 -7 4 -13 9 -13 9 0 106 -126 127 -167 10 -18
10 -21 -2 -16 -8 3 -19 14 -25 24 -11 21 -34 27 -24 7 4 -7 0 -5 -8 5 -8 9
-24 17 -36 17 -12 0 -35 7 -50 15 -16 8 -47 17 -70 21 -23 4 -41 10 -41 14 0
13 -84 18 -93 6 -4 -7 -9 -2 -13 12 -5 18 -11 22 -28 17 -166 -50 -647 -157
-831 -184 -183 -27 -376 -47 -578 -62 l-169 -13 7 -70 c21 -224 135 -891 166
-973 9 -24 11 -25 82 -19 101 9 248 25 337 36 41 5 116 14 165 20 251 30 792
137 985 194 25 8 81 24 125 36 327 91 689 222 1025 372 342 153 837 443 1155
678 52 38 99 70 105 70 5 0 10 2 10 5 0 6 -111 163 -250 355 -19 27 -69 95
-109 152 -99 136 -171 228 -180 228 -4 0 -11 -4 -16 -9z m-699 -1022 c3 -6 2
-15 -4 -21 -7 -7 -14 -3 -21 11 -10 17 -9 21 3 21 8 0 18 -5 22 -11z"/>
<path d="M8545 2470 c-16 -5 -77 -22 -135 -40 -411 -124 -747 -220 -767 -220
-60 -1 426 -355 727 -529 121 -71 406 -218 503 -260 26 -12 66 -30 90 -40 295
-133 852 -316 1232 -406 158 -37 378 -84 449 -95 34 -5 133 -21 221 -35 212
-33 432 -54 662 -64 134 -6 160 -8 90 -9 -59 -1 -96 -6 -92 -11 3 -6 -47 -8
-132 -6 -102 4 -133 2 -120 -6 10 -6 43 -9 73 -7 30 1 54 0 54 -4 0 -5 86 -8
192 -8 193 0 241 10 100 21 l-77 6 95 2 c65 2 87 6 70 11 -16 5 13 8 83 9 78
1 107 4 107 14 0 6 -7 44 -15 82 -34 159 -91 493 -125 740 -11 83 -23 165 -26
183 l-5 32 -267 0 c-374 0 -694 27 -1082 91 -164 27 -415 82 -515 114 -22 6
-60 18 -85 25 -25 7 -54 16 -65 20 -11 4 -51 17 -90 29 -88 27 -560 183 -640
212 -275 100 -452 159 -468 158 -7 -1 -25 -5 -42 -9z"/>
<path d="M465 795 c-24 -24 -25 -27 -25 -185 0 -158 1 -161 25 -185 24 -25 27
-25 195 -25 168 0 171 0 195 25 24 24 25 27 25 185 0 158 -1 161 -25 185 -24
25 -27 25 -195 25 -168 0 -171 0 -195 -25z m237 -82 c24 -29 78 -171 75 -195
-3 -16 -12 -24 -31 -26 -23 -3 -29 3 -50 50 -13 29 -26 61 -29 71 -4 9 -12 17
-18 17 -7 0 -10 -3 -6 -6 3 -4 -1 -20 -9 -36 -9 -17 -11 -27 -5 -24 6 4 11 2
11 -3 0 -6 3 -10 8 -10 21 4 32 -3 32 -20 0 -30 -25 -42 -76 -39 -68 4 -74 20
-39 107 43 107 60 131 93 131 16 0 36 -8 44 -17z"/>
<path d="M11920 759 c0 -5 5 -7 10 -4 6 3 10 8 10 11 0 2 -4 4 -10 4 -5 0 -10
-5 -10 -11z"/>
</g>
</svg>
