<svg version="1.0" xmlns="http://www.w3.org/2000/svg" width="933.333" height="933.333" viewBox="0 0 700 700">
    <path
        d="M111 1.5C54 10.6 10.1 54.8 1.5 112c-2.2 14.2-2.2 461.8 0 476 5 33.1 22.1 63.1 47.5 83.1 19.3 15.2 41.2 24.6 65.3 27.8 5.4.8 80 1.1 236 1.1 193.7 0 229.6-.2 237.7-1.5 32.4-4.9 62.4-21.7 82-46.2 15.8-19.6 24.9-40 28.5-64.3 2.2-14.2 2.2-461.8 0-476C689.8 54.3 645.7 10.2 588 1.5c-13.6-2.1-463.9-2-477 0zm283.7 68c-.4 29.2-.6 30.4-6.9 44.9-10.5 24.1-26.2 43.8-71.3 89.6-32 32.5-104.2 107-120.2 124.1-31 33.2-45.6 54.6-53.8 79.2-3.4 10.2-6.5 25.3-6.5 31.5 0 5.2-1.6 2.9-4.1-6-2-7.3-2.3-10.5-2.3-26.3 0-19.8 1.5-29.5 7.5-48.4 7.9-24.8 23.8-49.2 51.6-79.2 5.4-5.9 36.8-38.2 69.8-71.8 69.1-70.5 87.9-90.1 101.7-106.1 21.2-24.7 30.4-41.9 33.5-63l.8-5.5.3 5c.2 2.7.2 17.1-.1 32zm.9 102.5c-.5 14.5-3 23.8-10.2 38.2-12.1 24.1-21.5 34.8-101.4 115.6-38.8 39.3-74.5 75.7-79.4 81-28.2 30.7-44 56.9-49 81.4-3 14.3-1.6 32.3 3.3 43.3 1.9 4.2 1.9 4.6.3 4.3-.9-.2-3.6-3.1-5.9-6.5-7-10.6-11.3-24.4-13.3-43.1-3-28.3 5.6-57.1 26.4-88.7 14.7-22.3 26.1-35 81.6-91 29.4-29.7 56.5-56.9 60.1-60.5 11.8-11.5 40.2-41.2 49.3-51.4 12.8-14.5 23.6-29.3 28.4-39 3.9-8 8-21 8.3-26.5.5-8 1.9 32.5 1.5 42.9zm-2.2 102.5c-3.7 18.5-15.1 39-35.4 63.7-4.7 5.6-31.6 33.7-59.9 62.2l-51.3 52 2.8 2.4c8.2 6.7 10.7 7.5 25.9 8.3 25.3 1.4 37.9 6.7 48.1 20.2l4.4 5.9v9.2c0 12.6 1.8 18.1 8.2 25.1 6.1 6.7 12.9 10.4 22.1 11.9l6.8 1.2-4.1 7.9c-2.2 4.4-8.1 13.6-13.1 20.5-13.9 19.1-19 27.2-26.9 42.5-6.7 13.1-7.2 14.6-7.9 22.5-.9 9.8-2 12.5-5.6 13.4-4.1 1-6.5-1.1-10.3-9.2-9.4-20.4-12.2-34-12.2-59 0-20.8-.8-24.1-6.8-29.7-14.8-13.6-17.9-17.1-20.2-23-3.3-8.7-3.6-18-1.1-29.2 3.8-17 2.3-22-7.6-24.8-1.2-.3-6.4.2-11.5 1.1-8.9 1.6-9.5 1.9-13.2 6.1-13.9 15.3-26.8 38.4-31.1 55.7-2.7 10.7-3.3 25.3-1.4 33.6 2.3 9.9 7.7 17.8 15.9 23.2l4.5 3-4-.6c-2.2-.4-7.2-2.2-11.2-4.2-13.1-6.3-22.9-20.4-27.4-39.1-1.9-7.7-2.1-10.8-1.6-24.8.4-13.1 1-17.7 3.1-25.5 4.9-17.6 13.9-33.9 28-50.8 4.2-5.1 36.2-38.2 71-73.5s67.7-68.9 73-74.7c34.4-36.8 46.6-56.8 50.3-82 .5-3.7.9 3.5 1.1 22.5.2 22.6-.1 29.6-1.4 36zm32.3-16.2c20 11.4 37.1 25.1 51 40.8 8.6 9.7 21.1 27.9 26.8 39.1l4 7.7 32.5.3c31 .3 32.7.4 36.5 2.5 7.7 4.1 12 11 11.2 18-.7 6.4-4.4 11.2-12.3 15.9-31 18.4-92.5 54-96.7 56-6.8 3.1-13.6 3.1-20.2 0-2.7-1.3-26.4-14.8-52.5-30-50.3-29.4-55.2-32.9-56.6-40.1-1.6-8.6 4.9-18 14.5-20.9 4.8-1.4 13.5-1.6 68.3-1.6h62.9l-.6-2.3c-1.7-5.4-6.1-7.9-16.7-9.2-7.9-1-12.6-6.3-16.1-18.2-1.9-6.4-3-8.4-7.9-14.9-2.1-2.8-4.6-7.3-5.5-10-2.2-6.6-5.2-10.8-10.3-14.5-2.4-1.7-6.8-5.8-9.9-9-5.1-5.5-7.9-7.7-15.4-12.3-2.9-1.8-2.8-3.6.2-3.6.9 0 6.7 2.9 12.8 6.3zm2.7 192.2c11.9 6.9 24.2 13.8 27.3 15.2 7.3 3.4 15.3 3.4 22.6 0 5.2-2.4 58.4-32.8 90.2-51.5 9.4-5.5 17.1-9.9 17.2-9.8.1 0 .3 22 .4 48.8l.3 48.7-3 4.7c-2.1 3.5-4.4 5.6-8.3 7.6l-5.3 2.8H468.6c-112.3 0-106.9.3-114-6.6-1.9-1.9-4-5.1-4.5-7.2-.7-2.3-1.1-21.6-1.1-51.9v-48.2l28.9 17.3c15.8 9.6 38.6 23.1 50.5 30.1zm62.6 90.4c0 1.9-11.3 15.5-21.9 26.5-24.7 25.3-54.6 43-87.9 52.2-14 3.8-16.2 4.1-16.2 1.9 0-.9 2.5-2.1 7.3-3.5 23.7-6.8 37.4-13.6 41.1-20.4 1-1.9 4.4-5.3 7.5-7.5 6.7-4.8 9.8-7.7 17.3-16.3 6.4-7.3 10.6-9.8 16.8-9.8 5.3 0 7.2-1 14.7-8.1 3.4-3.3 7-5.9 8.1-5.9 1.2 0 3.4-1.7 5.3-4.3 1.8-2.3 3.9-4.7 4.7-5.4 1.5-1.2 3.2-.9 3.2.6z"
    />
</svg>
